# xmcd
#
# Track frame offsets:
#	150
#	22240
#	43085
#	60208
#	70953
#	87790
#	109088
#	119648
#	135760
#	156195
#	167483
#	185978
#	203775
#	225793
#	240485
#
# Disc length: 3787 seconds
#
# Revision: 2
# Processed by: cddbd v1.5.2PL0 Copyright (c) Steve Scherf et al.
# Submitted via: audiograbber 1.83.01
#
DISCID=c10ec90f
DTITLE=Al Gringo and The Original Psychobilly Krautboys On Moonshine - Krautboys
DYEAR=1993
DGENRE=Country
TTITLE0=Ladies Love Krautboys
TTITLE1=Sauerland Waltz
TTITLE2=Nightmare Creatures
TTITLE3=Ladies O-O-O-Ladies (Let's Talk About ...)
TTITLE4=The Contest
TTITLE5=Drinking Song
TTITLE6=Pilsbeer On My Mind
TTITLE7=We Are  The Krautboys
TTITLE8=Antonio's Thunderbird
TTITLE9=Wind Of Change
TTITLE10=Tears In My Beer
TTITLE11=Cheesy Mountain Polka
TTITLE12=Girls, Girls, Girls
TTITLE13=Sons Of The Sauerkraut
TTITLE14=Rootfield Blues
EXTD=
EXTT0=
EXTT1=
EXTT2=
EXTT3=
EXTT4=
EXTT5=
EXTT6=
EXTT7=
EXTT8=
EXTT9=
EXTT10=
EXTT11=
EXTT12=
EXTT13=
EXTT14=
PLAYORDER=
